<?xml version="1.0" standalone="no"?>
<!DOCTYPE svg PUBLIC "-//W3C//DTD SVG 20010904//EN"
 "http://www.w3.org/TR/2001/REC-SVG-20010904/DTD/svg10.dtd">
<svg version="1.0" xmlns="http://www.w3.org/2000/svg"
 width="200.000000pt" height="100.000000pt" viewBox="0 0 200.000000 100.000000"
 preserveAspectRatio="xMidYMid meet">

<g transform="translate(0.000000,100.000000) scale(0.100000,-0.100000)"
fill="#000000" stroke="none">
<path d="M278 892 l-168 -97 0 -205 0 -205 175 -102 176 -102 174 102 175 101
0 206 0 205 -168 98 c-93 53 -175 97 -183 97 -8 0 -89 -44 -181 -98z m190 65
c5 8 51 -14 151 -72 79 -46 148 -88 152 -92 8 -9 -271 -174 -304 -180 -30 -5
-334 172 -315 183 7 5 76 46 153 90 95 56 142 78 148 70 5 -8 9 -8 15 1z
m-158 -292 c63 -36 121 -72 128 -79 9 -9 12 -57 10 -193 l-3 -182 -141 82
c-78 45 -149 88 -158 96 -14 12 -16 39 -16 198 l0 185 33 -20 c17 -11 84 -50
147 -87z m480 -84 l0 -188 -157 -91 -158 -91 -3 181 c-1 117 1 185 8 192 8 9
296 182 308 185 1 1 2 -84 2 -188z"/>
<path d="M450 890 c0 -11 5 -20 10 -20 6 0 10 9 10 20 0 11 -4 20 -10 20 -5 0
-10 -9 -10 -20z"/>
<path d="M450 816 c0 -8 5 -18 10 -21 6 -3 10 3 10 14 0 12 -4 21 -10 21 -5 0
-10 -6 -10 -14z"/>
<path d="M450 740 c0 -11 5 -20 10 -20 6 0 10 9 10 20 0 11 -4 20 -10 20 -5 0
-10 -9 -10 -20z"/>
<path d="M450 666 c0 -8 5 -18 10 -21 6 -3 10 3 10 14 0 12 -4 21 -10 21 -5 0
-10 -6 -10 -14z"/>
<path d="M380 550 c-13 -8 -13 -10 2 -10 9 0 20 5 23 10 8 13 -5 13 -25 0z"/>
<path d="M310 510 c-13 -8 -13 -10 2 -10 9 0 20 5 23 10 8 13 -5 13 -25 0z"/>
<path d="M245 470 c-3 -5 -2 -10 4 -10 5 0 13 5 16 10 3 6 2 10 -4 10 -5 0
-13 -4 -16 -10z"/>
<path d="M175 430 c-3 -5 -2 -10 4 -10 5 0 13 5 16 10 3 6 2 10 -4 10 -5 0
-13 -4 -16 -10z"/>
<path d="M520 550 c8 -5 20 -10 25 -10 6 0 3 5 -5 10 -8 5 -19 10 -25 10 -5 0
-3 -5 5 -10z"/>
<path d="M585 510 c3 -5 14 -10 23 -10 15 0 15 2 2 10 -20 13 -33 13 -25 0z"/>
<path d="M655 470 c3 -5 11 -10 16 -10 6 0 7 5 4 10 -3 6 -11 10 -16 10 -6 0
-7 -4 -4 -10z"/>
<path d="M725 430 c3 -5 11 -10 16 -10 6 0 7 5 4 10 -3 6 -11 10 -16 10 -6 0
-7 -4 -4 -10z"/>
<path d="M903 742 c-7 -4 -15 -22 -19 -38 -7 -36 15 -64 50 -64 31 0 46 18 46
55 0 17 -5 36 -12 43 -14 14 -47 16 -65 4z m47 -47 c0 -16 -6 -25 -15 -25 -9
0 -15 9 -15 25 0 16 6 25 15 25 9 0 15 -9 15 -25z"/>
<path d="M1110 736 c0 -8 -6 -17 -12 -19 -10 -4 -10 -8 -2 -14 7 -4 14 -19 15
-33 3 -17 11 -26 27 -28 25 -4 27 0 10 28 -11 17 -10 22 1 29 10 7 10 12 -5
30 -21 24 -34 27 -34 7z"/>
<path d="M1313 732 c-6 -11 -8 -32 -4 -52 8 -41 31 -53 31 -16 0 13 5 28 11
31 6 4 8 13 5 20 -2 7 1 18 7 24 8 8 5 11 -14 11 -13 0 -29 -8 -36 -18z"/>
<path d="M1417 730 c-7 -28 6 -71 26 -84 23 -14 31 -2 15 23 -11 18 -11 23 2
32 11 8 12 12 3 16 -7 2 -13 11 -13 19 0 22 -27 17 -33 -6z"/>
<path d="M1490 695 c0 -42 3 -55 15 -55 10 0 15 10 15 30 0 37 18 40 22 3 2
-14 9 -28 16 -31 10 -3 12 6 10 34 -2 32 -7 40 -25 42 -13 2 -23 10 -23 18 0
8 -7 14 -15 14 -12 0 -15 -13 -15 -55z"/>
<path d="M1002 683 c3 -36 5 -38 41 -41 l37 -3 0 40 c0 30 -4 41 -15 41 -9 0
-15 -9 -15 -24 0 -14 -4 -28 -10 -31 -6 -4 -10 7 -10 24 0 21 -5 31 -16 31
-12 0 -14 -9 -12 -37z"/>
<path d="M1214 706 c-12 -31 0 -61 27 -64 33 -4 53 20 45 53 -5 20 -13 25 -37
25 -16 0 -32 -6 -35 -14z m46 -26 c0 -11 -4 -20 -10 -20 -5 0 -10 9 -10 20 0
11 5 20 10 20 6 0 10 -9 10 -20z"/>
<path d="M1594 694 c-9 -34 15 -59 48 -51 45 12 30 77 -18 77 -17 0 -25 -7
-30 -26z"/>
<path d="M890 470 c0 -57 12 -68 57 -53 23 8 28 16 29 44 1 52 -5 59 -47 59
l-39 0 0 -50z m50 20 c0 -5 -4 -10 -10 -10 -5 0 -10 5 -10 10 0 6 5 10 10 10
6 0 10 -4 10 -10z m5 -40 c3 -5 -1 -10 -9 -10 -9 0 -16 5 -16 10 0 6 4 10 9
10 6 0 13 -4 16 -10z"/>
<path d="M1226 504 c-9 -23 -9 -22 27 -45 l32 -20 -32 6 c-38 8 -45 -8 -12
-26 16 -8 28 -8 45 0 32 14 32 49 -1 57 -34 8 -32 23 3 16 24 -5 26 -4 13 11
-17 22 -67 22 -75 1z"/>
<path d="M1513 500 c-8 -12 -9 -21 -3 -25 6 -3 10 -17 10 -29 0 -15 7 -26 20
-29 21 -5 42 14 22 21 -15 5 -16 29 -1 34 8 3 8 10 -2 26 -17 27 -31 28 -46 2z"/>
<path d="M1006 484 c-9 -8 -16 -22 -16 -29 0 -18 27 -45 45 -45 18 0 45 27 45
45 0 18 -27 45 -45 45 -7 0 -21 -7 -29 -16z m42 -32 c2 -7 -3 -12 -12 -12 -9
0 -16 7 -16 16 0 17 22 14 28 -4z"/>
<path d="M1097 493 c-3 -5 -2 -15 3 -23 5 -8 4 -22 -2 -33 -12 -24 -3 -34 17
-17 11 9 18 10 28 1 18 -15 30 -2 15 16 -9 11 -9 19 0 33 13 22 4 34 -15 19
-9 -9 -17 -8 -27 0 -8 7 -17 8 -19 4z"/>
<path d="M1328 495 c-4 -4 -1 -23 7 -42 8 -18 12 -40 9 -47 -3 -8 0 -17 6 -21
6 -4 20 15 34 47 25 56 23 84 -3 51 -16 -19 -17 -19 -31 -1 -8 11 -18 16 -22
13z"/>
<path d="M1429 484 c-11 -14 -9 -19 11 -35 24 -18 24 -18 3 -12 -13 3 -23 1
-23 -5 0 -14 33 -24 54 -16 20 8 21 44 2 44 -8 0 -17 4 -20 9 -4 5 3 7 14 4
24 -6 27 12 4 21 -24 9 -30 8 -45 -10z"/>
<path d="M1596 484 c-22 -21 -20 -51 4 -64 31 -17 57 -4 58 28 0 49 -32 67
-62 36z"/>
<path d="M1683 484 c-7 -19 1 -64 12 -67 6 -1 11 10 13 26 4 34 20 35 24 2 4
-36 22 -36 29 0 l6 30 4 -28 c2 -15 9 -28 14 -28 12 1 20 70 8 72 -41 7 -106
2 -110 -7z"/>
<path d="M1833 493 c-18 -7 -16 -43 1 -43 8 0 17 -4 20 -9 4 -5 -3 -7 -14 -4
-25 7 -27 -14 -1 -22 23 -7 51 3 51 20 0 7 -10 20 -22 28 l-23 16 25 -6 c22
-6 24 -5 11 10 -14 17 -26 20 -48 10z"/>
</g>
</svg>
